# 3ds Max Wavefront OBJ Exporter v0.97b - (c)2007 guruware
# File Created: 23.09.2015 02:27:12

mtllib pared_ladrillo_seguridad.mtl

#
# object Box001
#

v  0.000000 -10.000000 0.000000
v  0.000000 0.000000 0.000000
v  3100.000000 0.000000 0.000000
v  3100.000000 -10.000000 0.000000
v  0.000000 -10.000000 1850.000000
v  3100.000000 -10.000000 1850.000000
v  3100.000000 0.000000 1850.000000
v  0.000000 0.000000 1850.000000
# 8 vertices

vn 0.000000 0.000000 -1.000000
vn 0.000000 0.000000 1.000000
vn 0.000000 -1.000000 0.000000
vn 1.000000 0.000000 0.000000
vn 0.000000 1.000000 0.000000
vn -1.000000 0.000000 0.000000
# 6 vertex normals

vt 0.990011 0.827561 0.000000
vt 0.987348 0.827561 0.000000
vt 0.987348 0.002000 0.000000
vt 0.990011 0.002000 0.000000
vt 0.992674 0.002000 0.000000
vt 0.992674 0.827561 0.000000
vt 0.494674 0.827561 0.000000
vt 0.494674 0.002000 0.000000
vt 0.995337 0.002000 0.000000
vt 0.995337 0.494674 0.000000
vt 0.992674 0.494674 0.000000
vt 0.002000 0.827561 0.000000
vt 0.002000 0.002000 0.000000
vt 0.998000 0.002000 0.000000
vt 0.998000 0.494674 0.000000
# 15 texture coords

g Box001
usemtl Material__350
s 2
f 1/1/1 2/2/1 3/3/1 
f 3/3/1 4/4/1 1/1/1 
s 4
f 5/1/2 6/4/2 7/5/2 
f 7/5/2 8/6/2 5/1/2 
s 8
f 1/7/3 4/8/3 6/3/3 
f 6/3/3 5/2/3 1/7/3 
s 16
f 4/5/4 3/9/4 7/10/4 
f 7/10/4 6/11/4 4/5/4 
s 32
f 3/12/5 2/13/5 8/8/5 
f 8/8/5 7/7/5 3/12/5 
s 64
f 2/9/6 1/14/6 5/15/6 
f 5/15/6 8/10/6 2/9/6 
# 12 faces

