# 3ds Max Wavefront OBJ Exporter v0.97b - (c)2007 guruware
# File Created: 19.09.2015 03:57:47

mtllib eje_coordenadas.mtl

#
# object Box001
#

v  12.500000 12.500000 0.000000
v  12.500000 -12.500000 0.000000
v  -12.500000 -12.500000 0.000000
v  -12.500000 12.500000 0.000000
v  12.500000 12.500000 750.000000
v  -12.500000 12.500000 750.000000
v  -12.500000 -12.500000 750.000000
v  12.500000 -12.500000 750.000000
# 8 vertices

vn 0.000000 0.000000 -1.000000
vn 0.000000 0.000000 1.000000
vn 0.000000 -1.000000 0.000000
vn 1.000000 0.000000 0.000000
vn 0.000000 1.000000 0.000000
vn -1.000000 0.000000 0.000000
# 6 vertex normals

g Box001
usemtl wire_008008136
s 2
f 1//1 2//1 3//1 4//1 
s 4
f 5//2 6//2 7//2 8//2 
s 8
f 8//3 7//3 3//3 2//3 
s 16
f 5//4 8//4 2//4 1//4 
s 32
f 6//5 5//5 1//5 4//5 
s 64
f 7//6 6//6 4//6 3//6 
# 6 polygons

#
# object Box002
#

v  -0.000001 12.500000 -12.500000
v  -0.000001 -12.500000 -12.500000
v  0.000001 -12.500000 12.500000
v  0.000001 12.500000 12.500000
v  750.000000 12.500000 -12.500032
v  750.000000 12.500000 12.499968
v  750.000000 -12.500000 12.499968
v  750.000000 -12.500000 -12.500032
# 8 vertices

vn -1.000000 0.000000 0.000000
vn 1.000000 0.000000 -0.000000
vn 0.000000 -1.000000 0.000000
vn -0.000000 0.000000 -1.000000
vn 0.000000 1.000000 0.000000
vn 0.000000 0.000000 1.000000
# 6 vertex normals

g Box002
usemtl wire_135006006
s 2
f 9//7 10//7 11//7 12//7 
s 4
f 13//8 14//8 15//8 16//8 
s 8
f 16//9 15//9 11//9 10//9 
s 16
f 13//10 16//10 10//10 9//10 
s 32
f 14//11 13//11 9//11 12//11 
s 64
f 15//12 14//12 12//12 11//12 
# 6 polygons

#
# object Box003
#

v  12.500000 -0.000001 12.500000
v  12.500000 0.000001 -12.500000
v  -12.500000 0.000001 -12.500000
v  -12.500000 -0.000001 12.500000
v  12.500000 -750.000000 12.499968
v  -12.500000 -750.000000 12.499968
v  -12.500000 -750.000000 -12.500032
v  12.500000 -750.000000 -12.500032
# 8 vertices

vn 0.000000 1.000000 0.000000
vn 0.000000 -1.000000 -0.000000
vn 0.000000 0.000000 -1.000000
vn 1.000000 0.000000 0.000000
vn 0.000000 -0.000000 1.000000
vn -1.000000 0.000000 0.000000
# 6 vertex normals

g Box003
usemtl wire_006135006
s 2
f 17//13 18//13 19//13 20//13 
s 4
f 21//14 22//14 23//14 24//14 
s 8
f 24//15 23//15 19//15 18//15 
s 16
f 21//16 24//16 18//16 17//16 
s 32
f 22//17 21//17 17//17 20//17 
s 64
f 23//18 22//18 20//18 19//18 
# 6 polygons

